<svg xmlns="http://www.w3.org/2000/svg" viewBox="0 0 120 120">
<!-- SVG created with Arrow, by QuiverAI (https://quiver.ai) -->
  <style type="text/css">.cls-0 {fill:#5E2F86;}
.cls-1 {fill:#F2E9FF;}</style>
  <path class="cls-0" d="m101.6 120.3h-83.2c-10-1.4-18.4-11.2-18.4-20.7v-79.2c0-9.5 8.4-19.3 18.4-20.7h83.3c9.9 1.4 18.3 11.2 18.3 20.7v79.2c0 9.5-8.4 19.3-18.4 20.7z"/>
  <path class="cls-1" d="m47 59.9c2.7-1.3 3.4-4.9 4.1-10.9 0.5-3.4 1.3-9 4.2-11 4-1.5 5.5 4.5 5.9 9 1 7.6 1.4 20.2 2.6 20.2 1.5 0 1.4-10.7 3.3-14 1.3-2.6 3.5-3.6 6-2.6v-13.7c0-5.8-5.2-11.9-12.9-11.9-6.4 0-13.2 4.9-13.2 11.9v23z"/>
  <path class="cls-1" d="m70.9 54.6c-1.9 3.3-0.9 12.3-4.9 16.3-2.9 2.6-6 0.5-7.3-8.5-0.8-5.8-1-19.3-2.7-19.3-0.9 0-1.5 6.5-2 10.5-1 6.3-3.4 9.3-7 10v4.6c0 6.4 5 11.7 12.2 12.6 7.7 0.4 13.9-4.9 13.9-12.2v-10.4c0-3-1.4-5.3-2.2-3.6z"/>
  <path class="cls-1" d="m78.8 64.4c-0.9 0-1.8 0.8-1.8 1.7v2.3c0 7.7-6.1 16.5-17 16.6-10 0.1-16.8-7.5-16.8-16.4v-2.4c0-1-0.7-1.8-1.8-1.8-0.9 0-1.9 0.7-1.9 1.8v2.2c0.1 8.8 6.9 19.1 18.1 20.5v7.8h-8.8c-0.8 0-1.9 0.8-1.9 1.9 0 0.9 0.7 1.8 1.9 1.8h22.4c1 0 1.9-0.8 1.9-1.8s-0.9-1.8-1.7-1.8h-9.2v-7.9c10.4-1 17.7-9.3 18.3-18.5v-4.4c0-0.8-0.8-1.6-1.7-1.6z"/>
  <path class="cls-1" d="m97 57.4c-1.6 0-2-1.3-3.6-1.3-4 0.1-3.4 7.4-4.5 7.4-1-1-0.5-16.1-5-16.1-4.9 0-4.2 9.4-5.3 10.5-0.5 0.2-1.6 0.1-1.6 0.1v2.5c0 1.1 1.4 1.3 2.1 1.3 3.9-0.2 3.3-9.7 4.4-9.7 1.1-0.2 0.4 15.8 5.1 15.8 2.6 0.2 3.8-3.8 4.4-6.4 0.4-1.6 0.9-1.9 1.6-1.5 0.9 0.4 1.8 0.7 2.6 0.6 0.9 0 1.4-1 1.4-1.6 0-0.9-0.7-1.6-1.6-1.6z"/>
  <path class="cls-1" d="m40.9 60c1.1 0.4 2.2-0.1 2.5-1.2-0.5-2.2-0.5-3.3-0.8-5.8-0.5-3.4-1.7-8-4.1-8-1.9 0-3.4 2.9-4.1 8.6-0.5 5.5-0.8 11.1-1.7 11.1-0.7-1.1-1.1-11.6-4.1-11.7s-2.7 4.4-5.6 4.5c-0.9 0-1.6 0.7-1.6 1.5 0 0.9 0.7 1.6 1.5 1.6 2 0.1 3.7-1.2 4.7-2.6s0.5 11.9 5 11.9c1.9 0 3.6-2.9 4.3-9.3 0.5-6 1-10 1.3-10 1 0 0.9 8.9 2.7 9.4z"/>
</svg>